PathFileType	4	(X/Y/Z)	/Users/niels/Desktop/University/Third Semester/Perception and Action/Exam/Gymnastics Motion Tracking/Code for Gym Tracking/Analyzed Data/Webcam_Backflip/id8_5_pure_Sports2D/id8_5_pure_Sports2D_px_person00.trc
DataRate	CameraRate	NumFrames	NumMarkers	Units	OrigDataRate	OrigDataStartFrame	OrigNumFrames
29.8125	29.8125	9	22	m	29.8125	120	160
Frame#	Time	Hip			RHip			RKnee			RAnkle			RBigToe			RSmallToe			RHeel			LHip			LKnee			LAnkle			LBigToe			LSmallToe			LHeel			Neck			Head			Nose			RShoulder			RElbow			RWrist			LShoulder			LElbow			LWrist		
		X1	Y1	Z1	X2	Y2	Z2	X3	Y3	Z3	X4	Y4	Z4	X5	Y5	Z5	X6	Y6	Z6	X7	Y7	Z7	X8	Y8	Z8	X9	Y9	Z9	X10	Y10	Z10	X11	Y11	Z11	X12	Y12	Z12	X13	Y13	Z13	X14	Y14	Z14	X15	Y15	Z15	X16	Y16	Z16	X17	Y17	Z17	X18	Y18	Z18	X19	Y19	Z19	X20	Y20	Z20	X21	Y21	Z21	X22	Y22	Z22
120	4.025157232704402	0.9933356146990943	-0.5780394672852295	0.0	0.9940967108193404	-0.5787519696447742	0.0	0.9891782952850982	-0.669853039158675	0.0	0.9748037463698672	-0.7631930055261072	0.0	1.0116907226862746	-0.7813945619492285	0.0	0.9989601906990442	-0.7841745986153477	0.0	0.9674578055686974	-0.7793935225969119	0.0	0.9920618755730416	-0.5794012899721114	0.0	0.9893544943151651	-0.6689831380978366	0.0	0.9749012885939442	-0.7590905470852621	0.0	1.0101836078868598	-0.7793704408690016	0.0	1.0063527283502438	-0.7763065190686477	0.0	0.9648956905246199	-0.7736238755953957	0.0	0.9918536099033741	-0.4409604484206324	0.0	1.0012470084713858	-0.37915599479669215	0.0	1.0173234135480858	-0.4104153496565683	0.0	0.986409299318588	-0.4605925495673419	0.0	0.9660467265267347	-0.5191211730123519	0.0	0.9712333601114658	-0.5790999746792898	0.0	0.9912080181585141	-0.46003819283857567	0.0	0.9768964980967556	-0.514642699235761	0.0	0.9898594711080533	-0.5745083943288067	0.0
121	4.058700209643606	0.9922463162105498	-0.5806879389606192	0.0	0.9933786622374967	-0.5814907867117788	0.0	0.990394807300626	-0.6721594498308543	0.0	0.9746519153865593	-0.7652714766594498	0.0	1.0111240364879301	-0.7832184392528055	0.0	0.9984773004550037	-0.7859760087098941	0.0	0.9672740615956312	-0.7813000709558233	0.0	0.9907318451301623	-0.5821480863333259	0.0	0.9888088837821646	-0.6712028318049706	0.0	0.9743477524576253	-0.76137137177128	0.0	1.0096987341766568	-0.7814377416006687	0.0	1.0055807624195152	-0.7782858597878471	0.0	0.964460031045309	-0.7756085668118168	0.0	0.9916649640709843	-0.4436333691147678	0.0	1.0007167617051596	-0.3817895748645189	0.0	1.0169545376741005	-0.41295365355424607	0.0	0.9862026935233699	-0.4633025661459044	0.0	0.9666043107237621	-0.5220306436066738	0.0	0.9724095531314856	-0.5812456972767079	0.0	0.9908878506972559	-0.4627557907022195	0.0	0.9767554647312194	-0.5174855229829055	0.0	0.9890360197305679	-0.5766824166094939	0.0
122	4.092243186582809	0.9908294942070616	-0.5844586830707388	0.0	0.9923631291070121	-0.5851532157132467	0.0	0.9924672428472924	-0.6755431859416862	0.0	0.9744195371261558	-0.7682823220688589	0.0	1.0103197420906325	-0.7858699545027482	0.0	0.9978707500936265	-0.7887208635805437	0.0	0.9671962190858877	-0.7840456330884572	0.0	0.9889909775176844	-0.5857015141357397	0.0	0.9877621102454586	-0.6747243851770358	0.0	0.9735861972732145	-0.7648206871678861	0.0	1.0091962590961308	-0.784489068891383	0.0	1.0045758729510919	-0.7811478586880668	0.0	0.9638678841491624	-0.7786058767604714	0.0	0.9914556242676387	-0.44753574307983185	0.0	1.000008972057988	-0.3856664271422568	0.0	1.0167082591264405	-0.41673297385739205	0.0	0.9858917510806453	-0.4673694668229093	0.0	0.9683142637218541	-0.5267938441863091	0.0	0.9754340621813109	-0.584864233490187	0.0	0.9905920078285881	-0.466824694481134	0.0	0.9775130768300376	-0.5223263595432573	0.0	0.988845249760833	-0.5804235085336236	0.0
123	4.125786163522012	0.9892143545172215	-0.5888345190630099	0.0	0.9911617512911624	-0.589250203303755	0.0	0.9955973369644371	-0.6795090038138711	0.0	0.9741625011570348	-0.7717974986033213	0.0	1.0093819329248432	-0.7890601207815461	0.0	0.997260721894839	-0.7920867564283293	0.0	0.9672102782456894	-0.7871893265129397	0.0	0.9869199602195918	-0.5896024464120899	0.0	0.9861674155180382	-0.6791218711591713	0.0	0.972640168608692	-0.769069686064173	0.0	1.0087176065236179	-0.7882136289397148	0.0	1.0033644399067552	-0.7845569929672213	0.0	0.9631694355118923	-0.7823183485824389	0.0	0.9911935431832015	-0.45215883369001425	0.0	0.999266094593924	-0.39034482483756244	0.0	1.0165984466936921	-0.42128110282471193	0.0	0.9854295835653187	-0.4723251538423198	0.0	0.97100814600538	-0.5328501676995909	0.0	0.9799973432761365	-0.5895954999115589	0.0	0.9902283749587653	-0.4716639807674336	0.0	0.9787798143765606	-0.5285090692956923	0.0	0.9893036736084856	-0.5851547462129042	0.0
124	4.159329140461216	0.9875850324188636	-0.5932442925119027	0.0	0.9899179861948944	-0.5932920798458938	0.0	0.9996711626627456	-0.6835050923872362	0.0	0.9740061516159068	-0.7753059407157903	0.0	1.0085335823340684	-0.7923955037552318	0.0	0.9968491572017701	-0.7956190390914727	0.0	0.9673201873367131	-0.7902275019023246	0.0	0.9847708210114083	-0.5933900952268047	0.0	0.9841805136946994	-0.6838268132512809	0.0	0.9716469099770886	-0.7736079228331033	0.0	1.0083732220396264	-0.7921940484879881	0.0	1.0021463141350624	-0.7881306277422143	0.0	0.9624820337440197	-0.7863673047648022	0.0	0.9908948366940364	-0.4569379874774776	0.0	0.9986011545021042	-0.3952579296835491	0.0	1.0165862149342042	-0.4260332143377634	0.0	0.9847847112611153	-0.477567048573933	0.0	0.9743616184082037	-0.5394363631196553	0.0	0.9856150230176658	-0.5947926521732	0.0	0.9897748318144484	-0.4765914489480939	0.0	0.9800954108483301	-0.5351105946495976	0.0	0.9903485094353468	-0.5901188859014173	0.0
125	4.192872117400419	0.9861438228722035	-0.5971642249276653	0.0	0.9887590407588821	-0.5968440851391686	0.0	1.0041988833234214	-0.6870167590431168	0.0	0.9740820081349073	-0.7783195226517716	0.0	1.0080843394573225	-0.7953808261751071	0.0	0.9968633464220816	-0.7987656375518638	0.0	0.9675364047899617	-0.79270280677713	0.0	0.9829319422435134	-0.5966605239531434	0.0	0.9821961275305487	-0.6882055801735197	0.0	0.9708125922534234	-0.7778329552622457	0.0	1.0083271304138945	-0.7958901581469553	0.0	1.0012704541689463	-0.791447169840752	0.0	0.9619346930977122	-0.7902764803873936	0.0	0.9906113426488898	-0.461309743260258	0.0	0.9980573794801815	-0.3998187306964005	0.0	1.0166276444914817	-0.43042349207348085	0.0	0.983984021626114	-0.4824431832625637	0.0	0.9779203464841044	-0.5456681754484641	0.0	0.9917600203901846	-0.5996542727094243	0.0	0.9893613684734239	-0.4809805351367146	0.0	0.9811731599962544	-0.5412058304474425	0.0	0.9919086340532821	-0.594653673287228	0.0
126	4.226415094339622	0.9850293149842361	-0.6001114477349634	0.0	0.9877385289346473	-0.5995042564279146	0.0	1.008527847712095	-0.6896173070457146	0.0	0.9744765020255174	-0.7804781289565881	0.0	1.0083335005853806	-0.7974995249665027	0.0	0.9974979073473361	-0.8009986842839238	0.0	0.967894092538847	-0.7942926916512215	0.0	0.9817196603228868	-0.5990581752539991	0.0	0.9806122627161628	-0.6916549913631118	0.0	0.9703006587969252	-0.7811579979803258	0.0	1.0086818836861617	-0.7986973220643553	0.0	1.0010150197385812	-0.7940378728146087	0.0	0.961616402801284	-0.793501317423459	0.0	0.9904009949229658	-0.46474488865186664	0.0	0.9976533995963544	-0.4035012460537812	0.0	1.016716646727474	-0.43392876384461954	0.0	0.9831218115455133	-0.4863436416952627	0.0	0.981221068474399	-0.5507085373423164	0.0	0.9980482191699823	-0.6034211362980634	0.0	0.9891891137784192	-0.48434794849268814	0.0	0.9820862132059498	-0.5460550507023588	0.0	0.9940098857045357	-0.5982908630472508	0.0
127	4.259958071278826	0.9842785902601258	-0.6016403933587505	0.0	0.9868251968359238	-0.6008859639339095	0.0	1.0121433460924685	-0.690990272573277	0.0	0.9752511723044597	-0.7815811441812817	0.0	1.0094562763465897	-0.7983840204781604	0.0	0.9988748891561322	-0.8019672611169262	0.0	0.9684915376844696	-0.7948394346032742	0.0	0.9812401186835356	-0.600231667909234	0.0	0.9795812272768838	-0.6937025569745335	0.0	0.9701645926126312	-0.7831688012004902	0.0	1.009397793691914	-0.8000858841187651	0.0	1.001401537900782	-0.7954427243924794	0.0	0.9615932331098375	-0.7955623300576328	0.0	0.9903326107267175	-0.46681982974257297	0.0	0.9974557311557405	-0.4058645929145827	0.0	1.0168878839339202	-0.4361220244706353	0.0	0.9823318161987539	-0.488790159840192	0.0	0.9839363494170823	-0.5539679324975427	0.0	1.0042626378688029	-0.605531803319395	0.0	0.989416981035548	-0.48637518679192865	0.0	0.9833039897523768	-0.5491810961058234	0.0	0.9968890821217395	-0.6006901613547313	0.0
128	4.293501048218029	0.9838713151391926	-0.6014532015773342	0.0	0.9859894246215809	-0.6006885519333065	0.0	1.0147898336986394	-0.6909431173858542	0.0	0.9764671861945607	-0.7815903494370358	0.0	1.0114579391258818	-0.7979576192263258	0.0	1.0010249067185093	-0.8015972908295567	0.0	0.9694572023582478	-0.7943547868943288	0.0	0.9814211822628437	-0.5998897430786366	0.0	0.9790313483393569	-0.6940830860399675	0.0	0.9703524994090786	-0.7837285314912835	0.0	1.010305938548941	-0.7997638336657247	0.0	1.0021926902846392	-0.7953405502556246	0.0	0.9619069930706515	-0.796196228000957	0.0	0.990489438412783	-0.46727544860602027	0.0	0.997561768570789	-0.40661119875275836	0.0	1.017198982709681	-0.4367546580641984	0.0	0.9817529319697095	-0.4894972820273779	0.0	0.9859307176393881	-0.555172877154509	0.0	1.0101635613154643	-0.6056951546500274	0.0	0.9901089852442988	-0.4868939913567127	0.0	0.9854627452752752	-0.5503670692519701	0.0	1.0009168943672075	-0.6015501109887399	0.0
